<?xml version="1.0" standalone="no"?><!DOCTYPE svg PUBLIC "-//W3C//DTD SVG 1.1//EN" "http://www.w3.org/Graphics/SVG/1.1/DTD/svg11.dtd">
<svg x="0.0000mm" y="0.0000mm" width="228.8650mm" height="82.8150mm" viewBox="0.0000 0.0000 228.8650 82.8150" version="1.1" xmlns="http://www.w3.org/2000/svg" shape-rendering="crispEdges">
<title>TBarCode - 11.17.1.16949</title>
<desc>BarCode licensed to MEM:TEC-IT Datenverarbeitung GmbH Internal License</desc>
<g fill="rgb(0%,0%,0%)">
</g>
<g fill="rgb(100%,100%,100%)">
<rect x="0.0000" y="0.0000" width="228.6000" height="82.8150" />
</g>
<g fill="rgb(0%,0%,0%)">
</g>
<g fill="rgb(0%,0%,0%)">
<rect x="0.0000" y="0.0000" width="1.5875" height="73.4076" />
<rect x="2.3813" y="0.0000" width="0.7938" height="73.4076" />
<rect x="4.7625" y="0.0000" width="2.3813" height="73.4076" />
<rect x="8.7313" y="0.0000" width="0.7938" height="73.4076" />
<rect x="10.3188" y="0.0000" width="1.5875" height="73.4076" />
<rect x="13.4938" y="0.0000" width="2.3813" height="73.4076" />
<rect x="17.4625" y="0.0000" width="0.7938" height="73.4076" />
<rect x="20.6375" y="0.0000" width="0.7938" height="73.4076" />
<rect x="22.2250" y="0.0000" width="1.5875" height="73.4076" />
<rect x="26.1938" y="0.0000" width="0.7938" height="73.4076" />
<rect x="27.7813" y="0.0000" width="3.1750" height="73.4076" />
<rect x="31.7500" y="0.0000" width="2.3813" height="73.4076" />
<rect x="34.9250" y="0.0000" width="1.5875" height="73.4076" />
<rect x="37.3063" y="0.0000" width="1.5875" height="73.4076" />
<rect x="40.4813" y="0.0000" width="1.5875" height="73.4076" />
<rect x="43.6563" y="0.0000" width="0.7938" height="73.4076" />
<rect x="45.2438" y="0.0000" width="2.3813" height="73.4076" />
<rect x="48.4188" y="0.0000" width="3.1750" height="73.4076" />
<rect x="52.3875" y="0.0000" width="2.3813" height="73.4076" />
<rect x="57.1500" y="0.0000" width="0.7938" height="73.4076" />
<rect x="58.7375" y="0.0000" width="1.5875" height="73.4076" />
<rect x="61.1188" y="0.0000" width="1.5875" height="73.4076" />
<rect x="65.8813" y="0.0000" width="0.7938" height="73.4076" />
<rect x="67.4688" y="0.0000" width="0.7938" height="73.4076" />
<rect x="69.8500" y="0.0000" width="0.7938" height="73.4076" />
<rect x="71.4375" y="0.0000" width="3.1750" height="73.4076" />
<rect x="75.4063" y="0.0000" width="2.3813" height="73.4076" />
<rect x="78.5813" y="0.0000" width="1.5875" height="73.4076" />
<rect x="80.9625" y="0.0000" width="1.5875" height="73.4076" />
<rect x="84.1375" y="0.0000" width="1.5875" height="73.4076" />
<rect x="87.3125" y="0.0000" width="2.3813" height="73.4076" />
<rect x="91.2813" y="0.0000" width="0.7938" height="73.4076" />
<rect x="92.8688" y="0.0000" width="1.5875" height="73.4076" />
<rect x="96.0438" y="0.0000" width="0.7938" height="73.4076" />
<rect x="98.4250" y="0.0000" width="2.3813" height="73.4076" />
<rect x="101.6000" y="0.0000" width="1.5875" height="73.4076" />
<rect x="104.7750" y="0.0000" width="0.7938" height="73.4076" />
<rect x="106.3625" y="0.0000" width="0.7938" height="73.4076" />
<rect x="109.5375" y="0.0000" width="1.5875" height="73.4076" />
<rect x="113.5063" y="0.0000" width="1.5875" height="73.4076" />
<rect x="115.8875" y="0.0000" width="2.3813" height="73.4076" />
<rect x="119.0625" y="0.0000" width="0.7938" height="73.4076" />
<rect x="122.2375" y="0.0000" width="1.5875" height="73.4076" />
<rect x="124.6188" y="0.0000" width="1.5875" height="73.4076" />
<rect x="127.7938" y="0.0000" width="1.5875" height="73.4076" />
<rect x="130.9688" y="0.0000" width="0.7938" height="73.4076" />
<rect x="132.5563" y="0.0000" width="2.3813" height="73.4076" />
<rect x="135.7313" y="0.0000" width="3.1750" height="73.4076" />
<rect x="139.7000" y="0.0000" width="0.7938" height="73.4076" />
<rect x="142.0813" y="0.0000" width="0.7938" height="73.4076" />
<rect x="143.6688" y="0.0000" width="1.5875" height="73.4076" />
<rect x="148.4313" y="0.0000" width="0.7938" height="73.4076" />
<rect x="150.0188" y="0.0000" width="1.5875" height="73.4076" />
<rect x="153.9875" y="0.0000" width="2.3813" height="73.4076" />
<rect x="157.1625" y="0.0000" width="0.7938" height="73.4076" />
<rect x="158.7500" y="0.0000" width="3.1750" height="73.4076" />
<rect x="162.7188" y="0.0000" width="2.3813" height="73.4076" />
<rect x="165.8938" y="0.0000" width="1.5875" height="73.4076" />
<rect x="168.2750" y="0.0000" width="1.5875" height="73.4076" />
<rect x="171.4500" y="0.0000" width="1.5875" height="73.4076" />
<rect x="174.6250" y="0.0000" width="1.5875" height="73.4076" />
<rect x="177.8000" y="0.0000" width="2.3813" height="73.4076" />
<rect x="181.7688" y="0.0000" width="0.7938" height="73.4076" />
<rect x="183.3563" y="0.0000" width="0.7938" height="73.4076" />
<rect x="185.7375" y="0.0000" width="2.3813" height="73.4076" />
<rect x="189.7063" y="0.0000" width="1.5875" height="73.4076" />
<rect x="192.0875" y="0.0000" width="0.7938" height="73.4076" />
<rect x="195.2625" y="0.0000" width="0.7938" height="73.4076" />
<rect x="198.4375" y="0.0000" width="1.5875" height="73.4076" />
<rect x="200.8188" y="0.0000" width="2.3813" height="73.4076" />
<rect x="203.9938" y="0.0000" width="0.7938" height="73.4076" />
<rect x="205.5813" y="0.0000" width="1.5875" height="73.4076" />
<rect x="209.5500" y="0.0000" width="3.1750" height="73.4076" />
<rect x="214.3125" y="0.0000" width="0.7938" height="73.4076" />
<rect x="215.9000" y="0.0000" width="0.7938" height="73.4076" />
<rect x="218.2813" y="0.0000" width="1.5875" height="73.4076" />
<rect x="222.2500" y="0.0000" width="2.3813" height="73.4076" />
<rect x="225.4250" y="0.0000" width="0.7938" height="73.4076" />
<rect x="227.0125" y="0.0000" width="1.5875" height="73.4076" />
</g>
<g fill="rgb(0%,0%,0%)">
</g>
</svg>
