<svg width="16" height="22" viewBox="0 0 16 22" fill="none" xmlns="http://www.w3.org/2000/svg">
<path d="M13.4167 4.49999H11.25V1.24999C11.25 0.654156 10.7625 0.166656 10.1667 0.166656H5.83335C5.23752 0.166656 4.75002 0.654156 4.75002 1.24999V4.49999H2.58335C1.39169 4.49999 0.416687 5.47499 0.416687 6.66666V18.5833C0.416687 19.775 1.39169 20.75 2.58335 20.75C2.58335 21.3458 3.07085 21.8333 3.66669 21.8333C4.26252 21.8333 4.75002 21.3458 4.75002 20.75H11.25C11.25 21.3458 11.7375 21.8333 12.3334 21.8333C12.9292 21.8333 13.4167 21.3458 13.4167 20.75C14.6084 20.75 15.5834 19.775 15.5834 18.5833V6.66666C15.5834 5.47499 14.6084 4.49999 13.4167 4.49999ZM5.29169 17.5H3.66669V7.74999H5.29169V17.5ZM8.81252 17.5H7.18752V7.74999H8.81252V17.5ZM9.62502 4.49999H6.37502V1.79166H9.62502V4.49999ZM12.3334 17.5H10.7084V7.74999H12.3334V17.5Z" fill="#979797"/>
</svg>
